<?xml version="1.0" standalone="no"?>
<!DOCTYPE svg PUBLIC "-//W3C//DTD SVG 20010904//EN"
 "http://www.w3.org/TR/2001/REC-SVG-20010904/DTD/svg10.dtd">
<svg version="1.0" xmlns="http://www.w3.org/2000/svg"
 width="510.000000pt" height="504.000000pt" viewBox="0 0 510.000000 504.000000"
 preserveAspectRatio="xMidYMid meet">

<g transform="translate(0.000000,504.000000) scale(0.100000,-0.100000)"
fill="#fff" stroke="none">
<path d="M2370 5013 c-236 -16 -513 -77 -760 -165 -110 -39 -334 -151 -444
-222 -392 -253 -703 -603 -908 -1022 -93 -188 -178 -463 -215 -687 -24 -149
-29 -525 -9 -692 36 -300 150 -651 298 -916 51 -91 198 -299 279 -394 100
-118 215 -235 231 -235 16 0 1174 1163 1638 1645 237 246 514 618 797 1068
112 179 286 502 337 627 97 236 161 435 186 577 10 57 10 75 1 87 -11 13 -270
146 -285 146 -4 0 -4 -33 0 -72 7 -86 -14 -247 -51 -384 -33 -121 -99 -283
-185 -452 -118 -233 -142 -274 -290 -497 -178 -268 -204 -305 -322 -461 -108
-144 -143 -189 -232 -293 -21 -25 -294 -305 -605 -621 -312 -316 -592 -602
-622 -635 -30 -34 -64 -69 -77 -79 -22 -17 -24 -17 -44 1 -44 39 -228 456
-228 516 0 9 53 66 117 129 64 62 450 445 857 851 614 611 821 823 971 991
118 132 284 369 389 553 78 138 196 428 196 482 0 12 -13 23 -42 34 -48 18
-209 60 -212 55 -2 -2 -11 -34 -21 -73 -72 -280 -263 -594 -569 -935 -69 -78
-1749 -1760 -1757 -1760 -13 0 -19 32 -30 170 -18 210 3 463 56 695 72 313
234 640 438 885 325 390 749 669 1187 782 113 29 119 30 316 25 l201 -4 7 120
c4 70 4 123 -2 129 -21 21 -427 43 -592 31z m-1158 -730 c-186 -201 -259 -296
-376 -492 -286 -479 -400 -1069 -315 -1626 34 -226 96 -450 182 -655 41 -98
74 -161 151 -289 31 -50 56 -95 56 -99 0 -11 -57 -72 -67 -72 -13 0 -26 13
-55 50 -14 19 -34 44 -44 55 -25 27 -104 133 -104 139 0 3 -17 32 -37 63 -148
232 -252 531 -308 888 -21 131 -20 428 1 573 56 385 194 724 416 1024 72 97
248 280 363 378 70 59 221 170 233 170 2 0 -41 -48 -96 -107z"/>
<path d="M4086 4478 c-3 -7 -12 -56 -21 -108 -22 -130 -49 -233 -97 -380 -37
-113 -52 -153 -106 -285 -38 -91 -185 -377 -245 -476 -119 -195 -253 -376
-392 -529 -75 -83 -643 -658 -1563 -1582 -332 -334 -601 -612 -597 -617 13
-21 205 -142 325 -205 160 -83 488 -206 549 -206 12 0 56 42 114 108 81 91
589 600 1995 2000 151 149 279 272 284 272 15 0 0 -204 -24 -330 -31 -165 -72
-309 -137 -474 -6 -15 -33 -71 -60 -125 -123 -245 -247 -413 -462 -631 -211
-213 -397 -351 -624 -461 -219 -108 -402 -157 -595 -161 l-115 -2 -35 -36
c-19 -19 -44 -47 -55 -60 -11 -14 -41 -51 -67 -82 -36 -42 -44 -57 -33 -62 41
-15 298 -28 480 -23 154 4 234 11 345 31 584 106 1007 322 1392 713 139 141
179 187 256 296 238 337 368 647 442 1057 57 316 40 742 -42 1025 -74 260
-181 515 -268 645 -9 14 -38 59 -65 100 -120 189 -313 399 -505 551 -60 48
-69 53 -74 37z m224 -535 c111 -127 287 -427 363 -623 135 -345 181 -789 116
-1128 -64 -333 -146 -560 -301 -825 -39 -68 -165 -239 -210 -287 -13 -14 -50
-54 -83 -90 -121 -132 -351 -321 -424 -348 -9 -3 48 60 125 140 78 81 173 189
212 240 352 470 536 1103 494 1701 -30 422 -152 794 -360 1104 l-35 53 18 55
c11 30 25 55 31 55 7 0 31 -21 54 -47z m-203 -395 c23 -31 98 -210 134 -319
21 -65 48 -172 59 -239 21 -120 21 -120 1 -148 -11 -15 -564 -570 -1229 -1235
-765 -764 -1216 -1207 -1228 -1207 -42 0 -322 133 -340 161 -3 5 383 400 859
877 475 477 897 903 939 947 270 289 438 519 615 843 45 84 83 154 83 156 0
14 82 176 89 176 5 0 13 -6 18 -12z"/>
</g>
</svg>
